<mxfile host="app.diagrams.net" modified="2022-07-22T17:30:38.058Z" agent="5.0 (X11; Linux x86_64) AppleWebKit/537.36 (KHTML, like Gecko) Chrome/103.0.5060.114 Safari/537.36 Edg/103.0.1264.62" etag="IUh5BezcJnWdJDNwnW0z" version="20.1.4" type="github">
  <diagram id="H4G-ktA5aWnUQEfOnNxf" name="Page-1">
    <mxGraphModel dx="993" dy="1063" grid="1" gridSize="10" guides="1" tooltips="1" connect="1" arrows="1" fold="1" page="1" pageScale="1" pageWidth="850" pageHeight="1100" math="0" shadow="0">
      <root>
        <mxCell id="0" />
        <mxCell id="1" parent="0" />
        <mxCell id="P07bUI6gDFYgw6QFaRxm-1" value="扽反对扽" style="rounded=0;whiteSpace=wrap;html=1;sketch=1;fillColor=#1ba1e2;fontColor=#ffffff;strokeColor=#006EAF;" vertex="1" parent="1">
          <mxGeometry x="230" y="340" width="120" height="60" as="geometry" />
        </mxCell>
      </root>
    </mxGraphModel>
  </diagram>
</mxfile>
